<?xml version="1.0" encoding="utf-8"?>
<!-- Generator: Adobe Illustrator 24.1.3, SVG Export Plug-In . SVG Version: 6.00 Build 0)  -->
<svg version="1.1" id="Calque_1" xmlns="http://www.w3.org/2000/svg" xmlns:xlink="http://www.w3.org/1999/xlink" x="0px" y="0px"
	 viewBox="0 0 384 512" style="enable-background:new 0 0 384 512;" xml:space="preserve">
<style type="text/css">
	.st0{fill:#33383D;}
</style>
<path class="st0" d="M363.8,264.5L217,412.5c-4.7,4.7-12.3,4.7-17,0l-19.8-19.8c-4.7-4.7-4.7-12.3,0-17L298.7,256L180.2,136.3
	c-4.7-4.7-4.7-12.3,0-17L200,99.5c4.7-4.7,12.3-4.7,17,0l146.8,148C368.5,252.2,368.5,259.8,363.8,264.5z M203.8,247.5L57,99.5
	c-4.7-4.7-12.3-4.7-17,0l-19.8,19.8c-4.7,4.7-4.7,12.3,0,17L138.7,256L20.2,375.7c-4.7,4.7-4.7,12.3,0,17L40,412.5
	c4.7,4.7,12.3,4.7,17,0l146.8-148C208.5,259.8,208.5,252.2,203.8,247.5L203.8,247.5z"/>
</svg>
